PathFileType        4      (X/Y/Z)      C:\Users\cpontonn\Documents\TRAVAIL - COURS\DIGISPORT\Partage Nico\Partage Nico DIGISPORT\TP OPENSIM - eleves - work\DATA\transformed_Marche0007.trc         
DataRate	CameraRate	NumFrames	NumMarkers	Units	OrigDataRate	OrigDataStartFrame	OrigNumFrames
100.0	100.0	6	38	mm	100.0	52	414
Frame#	Time	LFHD			LBHD			RFHD			RBHD			C7			T10			CLAV			STRN			LSHO			LRAD			LHUM			LWRB			LWRA			LCAR			RSHO			RRAD			RHUM			RWRB			RWRA			RCAR			LFWT			LBWT			RFWT			RBWT			LKNE			LKNI			LANE			LHEE			LANI			LTAR			LTOE			RKNE			RKNI			RANE			RHEE			RANI			RTAR			RTOE			
		X1	Y1	Z1	X2	Y2	Z2	X3	Y3	Z3	X4	Y4	Z4	X5	Y5	Z5	X6	Y6	Z6	X7	Y7	Z7	X8	Y8	Z8	X9	Y9	Z9	X10	Y10	Z10	X11	Y11	Z11	X12	Y12	Z12	X13	Y13	Z13	X14	Y14	Z14	X15	Y15	Z15	X16	Y16	Z16	X17	Y17	Z17	X18	Y18	Z18	X19	Y19	Z19	X20	Y20	Z20	X21	Y21	Z21	X22	Y22	Z22	X23	Y23	Z23	X24	Y24	Z24	X25	Y25	Z25	X26	Y26	Z26	X27	Y27	Z27	X28	Y28	Z28	X29	Y29	Z29	X30	Y30	Z30	X31	Y31	Z31	X32	Y32	Z32	X33	Y33	Z33	X34	Y34	Z34	X35	Y35	Z35	X36	Y36	Z36	X37	Y37	Z37	X38	Y38	Z38	
52	0.51	-2055.06445	1710.97729	107.06162999999984	-2202.29395	1701.68103	114.93817999999983	-2043.82959	1725.72229	240.98823999999985	-2206.20361	1709.58472	243.48400999999984	-2272.71582	1598.80444	210.4598099999998	-2401.7749	1397.02893	224.0474399999998	-2165.71777	1492.76294	211.51842999999982	-2172.76221	1311.01868	222.81307999999984	-2233.87695	1539.97449	8.784609999999821	-2359.68188	1186.41711	-29.138120000000217	-2375.84961	1200.4364	32.70211999999978	-2323.81274	933.28156	-43.03544000000023	-2282.29175	930.19501	22.238809999999777	-2277.46143	850.99475	-31.57785000000023	-2223.13184	1552.26038	401.3070399999998	-2318.25732	1194.70361	497.5638699999998	-2352.23999	1203.94788	449.0949399999998	-2265.60254	940.51813	526.1773699999999	-2231.80615	934.62103	462.3644399999998	-2227.35425	862.40198	523.3173199999998	-2187.17871	1052.43262	137.5403299999998	-2382.17212	1091.8689	191.54574999999977	-2197.05908	1038.09448	326.8572099999998	-2385.77979	1084.13782	273.06472999999977	-2180.06763	551.9671	75.83767999999976	-2180.01221	520.21448	189.75136999999978	-2229.97998	99.67030999999999	125.48288999999973	-2315.82153	22.74953999999999	174.02561999999972	-2230.07397	109.42639999999999	214.33185999999972	-2072.06152	44.265829999999994	115.01636999999974	-2024.64551	45.745159999999984	201.76313999999974	-2271.27417	515.66626	392.29415999999975	-2274.72363	469.85583	293.6294299999998	-2649.55884	250.29331999999997	354.01363999999967	-2730.39355	290.91647	276.8208899999997	-2608.9729	247.79313999999997	269.03728999999964	-2643.77295	82.30160999999997	381.99499999999966	-2600.35938	32.835209999999975	304.70949999999965	
53	0.52	-2044.15295	1712.8313	106.43300999999984	-2191.45264	1703.51868	113.77201999999983	-2033.40002	1727.64661	240.26951999999986	-2195.76709	1711.38708	242.25020999999987	-2262.32544	1600.5542	208.8359999999998	-2391.40869	1398.81592	221.8296699999998	-2155.50806	1494.40088	210.88775999999982	-2162.24805	1312.62463	222.42876999999982	-2222.03882	1541.53662	7.5924099999998225	-2344.89063	1186.79199	-31.88650000000022	-2361.88892	1200.85718	29.795159999999786	-2303.54272	934.32483	-44.12248000000023	-2262.42407	932.53052	21.48822999999978	-2255.15723	853.25055	-31.946510000000224	-2214.15015	1554.30945	400.12917999999985	-2309.89697	1196.7998	496.20598999999976	-2343.30566	1205.78857	447.30678999999975	-2256.22729	942.80438	525.4810799999999	-2221.62109	937.14069	462.0950299999998	-2217.45776	865.01959	523.0073899999998	-2176.58203	1054.01721	136.9377099999998	-2371.53369	1093.33447	191.07682999999977	-2183.73877	1041.16565	326.27120999999977	-2375.32642	1085.7417	272.5508999999998	-2176.57129	551.83514	75.60241999999975	-2175.94727	519.77753	189.52694999999977	-2229.84277	99.77726999999999	125.45507999999973	-2315.80518	22.94483999999999	174.0160099999997	-2229.75073	109.60796999999998	214.2283899999997	-2071.96997	44.10003999999999	114.99678999999975	-2024.52332	45.513089999999984	201.72277999999974	-2247.36182	519.31537	392.1142299999998	-2250.30249	473.40659	293.15438999999975	-2622.8396	250.63195999999996	353.82247999999964	-2706.17749	289.68384	278.7296399999997	-2583.2627	249.90923999999998	268.96258999999964	-2611.90063	82.59398999999998	380.21154999999965	-2568.10986	35.13867999999998	301.85482999999965	
54	0.53	-2033.28796	1714.71448	105.87089999999985	-2180.5896	1705.46594	112.75374999999983	-2022.98413	1729.4248	239.86936999999986	-2185.2981	1713.25684	241.08989999999986	-2251.98682	1602.35156	207.3845399999998	-2381.01587	1400.55066	219.7314299999998	-2145.24219	1496.11755	210.37302999999983	-2151.88306	1314.328	222.02712999999983	-2210.29712	1543.11511	6.546249999999823	-2330.03442	1187.20544	-34.56218000000021	-2347.85059	1201.03076	27.062239999999786	-2281.12964	935.50055	-46.28038000000022	-2242.67969	934.9101	20.788949999999783	-2232.76709	855.69525	-32.35786000000022	-2205.26001	1556.35083	399.0958299999998	-2301.54175	1198.75354	494.74410999999975	-2334.41724	1207.63428	445.38112999999976	-2246.99585	945.12744	524.6325099999999	-2211.50391	939.65137	461.79525999999976	-2207.77051	867.57581	522.8084699999998	-2166.21411	1055.56384	136.1722399999998	-2360.97192	1094.86841	190.67290999999977	-2173.07813	1043.87988	325.62981999999977	-2364.87793	1087.41577	272.1834399999998	-2173.03198	551.58423	75.52494999999976	-2172.19922	519.49188	189.37647999999976	-2229.70313	99.90841999999999	125.40460999999974	-2315.77539	23.15176999999999	174.01772999999972	-2229.48071	109.70871999999999	214.10297999999972	-2071.87598	43.922549999999994	114.93014999999974	-2024.42444	45.26114999999999	201.69495999999975	-2223.60718	523.31055	391.78728999999976	-2225.99731	477.22421	292.60552999999976	-2595.33838	249.52497999999997	353.7847299999997	-2680.7876	287.1347	280.4565399999997	-2556.58032	250.55266999999998	268.88576999999964	-2579.68335	81.58813999999997	378.33343999999965	-2535.27661	36.28595999999998	299.0478199999997	
55	0.54	-2022.36621	1716.53394	105.50521999999985	-2169.65063	1707.51392	111.85360999999983	-2012.5603	1731.02856	239.55604999999986	-2174.83472	1715.14587	240.13140999999985	-2241.73804	1604.14404	206.0207199999998	-2370.60205	1402.2655	217.7066299999998	-2135.04053	1497.88428	209.87424999999982	-2141.51196	1316.09595	221.68108999999984	-2198.68652	1544.7467	5.582949999999825	-2315.0271	1187.67993	-37.17599000000021	-2333.71826	1201.28943	24.330189999999792	-2260.55103	936.90387	-47.43743000000022	-2222.70728	937.44019	19.996319999999784	-2210.38159	858.4007	-32.87409000000022	-2195.94507	1558.29163	398.04119999999983	-2293.34814	1200.71143	493.1834699999998	-2325.61597	1209.43372	443.36736999999977	-2237.95825	947.33484	523.8371599999999	-2201.71265	942.07538	461.49828999999977	-2198.31323	870.08588	522.6635099999997	-2155.49268	1056.99292	135.2455399999998	-2350.3833	1096.40393	190.37769999999978	-2165.09033	1046.15649	325.0043599999998	-2354.40845	1089.20947	271.87835999999976	-2169.47852	551.39764	75.54779999999975	-2168.70386	519.20251	189.34194999999977	-2229.46313	100.08356999999998	125.44805999999973	-2315.73218	23.43459999999999	173.98334999999972	-2229.17773	109.91815999999999	214.10074999999972	-2071.76953	43.711639999999996	114.91293999999975	-2024.23779	44.947349999999986	201.67588999999975	-2199.94458	527.42352	391.4072599999998	-2201.76025	481.10123	291.93914999999976	-2567.14453	247.32685999999998	353.8803699999997	-2654.52612	283.01819	281.80709999999965	-2529.17065	249.94735999999997	268.8753399999997	-2546.42603	79.51570999999997	376.7090799999997	-2501.26465	36.63576999999998	296.66857999999974	
56	0.55	-2011.44421	1718.19922	105.31292999999985	-2158.78345	1709.51807	111.09594999999983	-2002.11816	1732.55701	239.42129999999986	-2164.375	1717.06287	239.28811999999985	-2231.55786	1605.88464	204.7730699999998	-2360.12476	1403.88953	215.7687399999998	-2124.87207	1499.71936	209.47976999999983	-2131.14819	1317.90979	221.34536999999983	-2187.25977	1546.49426	4.731759999999827	-2299.73828	1188.36169	-40.331960000000215	-2319.34839	1201.56165	21.68653999999979	-2240.07373	938.75616	-48.81114000000022	-2202.95679	940.03973	19.270079999999787	-2187.98779	861.34033	-33.44349000000022	-2186.80859	1560.84546	397.1807299999998	-2285.29834	1202.80737	491.62914999999975	-2316.83813	1211.24817	441.27956999999975	-2229.03076	949.53424	522.9617299999999	-2192.16528	944.48059	461.19729999999976	-2188.14526	872.65393	522.3179299999998	-2145.00391	1058.52258	134.2891399999998	-2339.8252	1097.93762	190.13842999999977	-2154.52441	1048.80884	324.1258899999998	-2343.84668	1091.08545	271.67009999999976	-2166.0835	551.3736	75.69985999999976	-2167.18628	518.82684	189.51343999999978	-2229.19531	100.33541999999998	125.52861999999973	-2315.64771	23.75449999999999	174.01630999999972	-2228.81445	110.11154999999998	214.1329499999997	-2071.64868	43.46632999999999	114.89570999999974	-2024.00586	44.59306999999998	201.60558999999975	-2176.71387	531.64069	390.9112199999998	-2178.09961	485.37039	291.14055999999977	-2538.3833	244.08437999999998	353.8616299999997	-2627.552	277.15103	282.8554699999997	-2501.0686	248.24968999999996	268.7677899999997	-2511.96045	76.89211999999998	375.62417999999974	-2465.53735	36.24973999999998	294.88338999999974	
57	0.56	-2000.50684	1719.70422	105.26768999999986	-2147.90112	1711.46289	110.54133999999983	-1991.62292	1733.92773	239.35550999999987	-2153.90405	1718.91077	238.64300999999986	-2221.44116	1607.51538	203.6328699999998	-2349.70996	1405.41809	213.9392399999998	-2114.74097	1501.5022	209.08571999999984	-2120.72461	1319.7887	221.00588999999982	-2175.95898	1548.22424	4.010309999999828	-2284.39746	1189.03125	-42.80816000000021	-2304.88452	1201.82471	19.162459999999793	-2218.06445	940.23291	-49.480960000000216	-2182.92822	942.72406	18.43205999999979	-2165.60132	864.4491	-34.138770000000214	-2177.90088	1562.71899	396.3792399999998	-2277.22119	1204.70117	490.00738999999976	-2308.10571	1213.0675	439.1897899999998	-2220.26953	951.66736	522.0317399999999	-2182.57373	946.69263	460.84246999999976	-2179.12646	875.01447	522.1196899999998	-2134.396	1059.81531	133.3186799999998	-2329.21045	1099.53528	189.96949999999978	-2143.84229	1051.31165	323.2318699999998	-2333.25562	1093.02563	271.50353999999976	-2162.81689	551.19775	75.92043999999976	-2163.41992	518.76715	189.72605999999976	-2228.94238	100.51120999999999	125.63549999999972	-2315.62744	24.06784999999999	174.03223999999972	-2228.43091	110.21827999999998	214.13799999999972	-2071.58618	43.29138999999999	114.88196999999974	-2023.77075	44.288049999999984	201.60901999999973	-2153.99731	535.94983	390.32549999999975	-2154.89136	489.75339	290.26607999999976	-2508.93652	240.01276999999996	353.7220199999997	-2600.09399	269.47226	283.6627499999997	-2472.30811	245.62233999999998	268.5842599999997	-2475.50659	73.99286999999997	374.96389999999974	-2427.77539	35.56478999999998	293.8991099999997	
